<?xml version="1.0" encoding="utf-8"?>
<!-- Generator: Adobe Illustrator 21.1.0, SVG Export Plug-In . SVG Version: 6.00 Build 0)  -->
<svg version="1.1" id="Layer_1" xmlns="http://www.w3.org/2000/svg" xmlns:xlink="http://www.w3.org/1999/xlink" x="0px" y="0px"
	 viewBox="0 0 632 641.6" style="enable-background:new 0 0 632 641.6;" xml:space="preserve">
<style type="text/css">
	.st0{fill:none;stroke:#8E8C8C;stroke-miterlimit:10;}
	.st1{fill:#A36C4A;}
	.st2{fill:#576778;}
	.st3{fill:#4E4E4E;}
	.st4{display:none;fill:none;stroke:#010101;stroke-miterlimit:10;}
	.st5{display:none;fill:none;stroke:#010101;stroke-width:5;stroke-miterlimit:10;}
</style>
<g>
	<path class="st0" d="M81.7,217.7l-10-21.3l-24.9,24.9c-12,12-17,29.2-13.5,45.7L54,237.3C60.8,227.6,70.7,220.8,81.7,217.7z"/>
	<path class="st0" d="M99.3,216l50.2,4.3l74.4-106.7c10.2-14.7,27.5-22.7,45.3-21.2l18.2,1.6l35.3-50.6l-49.3-13.2
		c-17.3-4.6-35.7,0.3-48.3,12.9L71.7,196.4l10,21.3C87.4,216.1,93.3,215.5,99.3,216z"/>
	<path class="st0" d="M46.2,315.9L94,247.3c0.3-0.4,0.6-0.8,0.9-1.3l-13.3-28.3c-11,3.1-20.9,9.9-27.7,19.6l-20.8,29.8
		c0.2,0.9,0.4,1.7,0.6,2.6L46.2,315.9z"/>
	<path class="st0" d="M139.3,226l5.8,0.5l4.3-6.2L99.3,216c-6-0.5-12,0.1-17.6,1.7L95,246C105.3,232.2,122,224.6,139.3,226z"/>
	<path class="st1" d="M277.7,237.9l15.9,1.4c1.1,0.1,2.2,0.2,3.2,0.4l-32.4-69.1c-7.6-16.2-6-35.2,4.3-49.8L287.3,94l-18.2-1.6
		c-17.8-1.5-35.1,6.6-45.3,21.2l-74.4,106.7l104.2,8.9C262.4,230,270.7,233,277.7,237.9z"/>
	<path class="st0" d="M277.7,237.9c-7-4.8-15.3-7.9-24.1-8.6l-104.2-8.9l-4.3,6.2L277.7,237.9z"/>
	<path class="st0" d="M267.6,574.9c-1.9,2.7-4.1,5.2-6.4,7.5l14,3.8l-6.2-13.3L267.6,574.9z"/>
	<path class="st2" d="M269,572.9l-38.6-82.4c-5-10.6-6-22.3-3.2-33.3c-13.2-4.1-24.3-13.6-30.3-26.5L131,290.5
		c-2-4.3-3.4-8.9-4.1-13.5c-13-4.2-23.8-13.6-29.7-26.3L95,246c-0.3,0.4-0.6,0.8-0.9,1.3l-47.8,68.6l52.9,197.3
		c4.6,17.3,18.1,30.7,35.4,35.4l126.7,33.9c2.4-2.3,4.5-4.8,6.4-7.5L269,572.9z"/>
	<path class="st0" d="M126.9,277c-2-12.6,0.9-25.6,8.4-36.3l9.8-14.1l-5.8-0.5c-17.3-1.5-34,6.1-44.3,20l2.2,4.7
		C103.1,263.4,114,272.7,126.9,277z"/>
	<path class="st0" d="M310.1,290.8l11.6,24.8l1.4-2c1.6-2.3,3.4-4.5,5.4-6.4l-9.3-19.9C316.3,288.8,313.3,290,310.1,290.8z"/>
	<path class="st0" d="M294.6,257.8l15.5,33c3.1-0.9,6.2-2,9.1-3.5l-22.4-47.7c-1.1-0.2-2.1-0.3-3.2-0.4l-15.9-1.4
		C284.9,242.8,290.8,249.6,294.6,257.8z"/>
	<path class="st0" d="M321.7,315.6l-11.6-24.8c-5.6,1.6-11.6,2.2-17.6,1.7l-154.3-13.2c-3.9-0.3-7.7-1.1-11.3-2.3
		c0.7,4.6,2.1,9.2,4.1,13.5l65.7,140.2c6,12.8,17.1,22.3,30.3,26.5c1.5-5.8,3.9-11.4,7.5-16.5L321.7,315.6z"/>
	<path class="st0" d="M292.5,292.5c6,0.5,12-0.1,17.6-1.7l-15.5-33c-3.8-8.2-9.7-15-16.9-20l-132.6-11.3l-9.8,14.1
		c-7.5,10.7-10.3,23.8-8.4,36.3c3.6,1.2,7.4,2,11.3,2.3L292.5,292.5z"/>
	<path class="st3" d="M458.7,502.7l-23-49.1c-10.4,13.2-26.7,20.3-43.5,18.9l-5.8-0.5l-78.7,112.9c-2.1,3-4.4,5.7-7,8.1l77.4,20.7
		c17.3,4.6,35.7-0.3,48.3-12.9l69.9-69.9C479.8,528.3,465.7,517.8,458.7,502.7z"/>
	<path class="st0" d="M388.2,340.8l-17-1.5c-1.1-0.1-2.2-0.2-3.2-0.4l32.4,69.1c7.6,16.2,6,35.2-4.3,49.8l-9.8,14.1l5.8,0.5
		c16.8,1.4,33.2-5.7,43.5-18.9l-42.7-91.1C389.7,355.6,388.1,348.1,388.2,340.8z"/>
	<path class="st0" d="M307.6,584.9L386.3,472l-44.3-3.8l-73,104.7l6.2,13.3l25.3,6.8C303.1,590.6,305.5,587.9,307.6,584.9z"/>
	<path class="st0" d="M227.1,457.2c-2.7,11-1.7,22.7,3.2,33.3l38.6,82.4l73-104.7l-104.2-8.9C234.1,459,230.5,458.3,227.1,457.2z"/>
	<path class="st0" d="M400.4,408L368,338.9c-16.4-2.5-30.7-13-37.8-28.2l-1.7-3.5c-1.9,2-3.8,4.1-5.4,6.4l-1.4,2l38.6,82.4
		c7.6,16.2,6,35.2-4.3,49.8l-14.2,20.3l44.3,3.8l9.8-14.1C406.3,443.2,408,424.2,400.4,408z"/>
	<path class="st0" d="M360.4,398l-38.6-82.4l-87.2,125c-3.5,5.1-6,10.7-7.5,16.5c3.4,1.1,7,1.8,10.7,2.1l104.2,8.9l14.2-20.3
		C366.3,433.2,368,414.2,360.4,398z"/>
	<path class="st0" d="M434.7,107.9c13,4.2,23.8,13.6,29.7,26.3l23,49.1c10.4-13.2,26.7-20.3,43.5-18.9l30.8,2.6l-9.7-36.3
		c-4.6-17.3-18.1-30.7-35.4-35.4l-98-26.3l11.8,25.2C432.6,98.7,434,103.3,434.7,107.9z"/>
	<path class="st0" d="M434.7,107.9c-0.7-4.6-2.1-9.2-4.1-13.5l-11.8-25.2l-96.2-25.8L287.3,94l136.1,11.6
		C427.3,105.9,431.1,106.7,434.7,107.9z"/>
	<path class="st1" d="M434.7,107.9c2,12.6-0.9,25.6-8.4,36.3l-88.6,127c-0.3,0.4-0.6,0.8-0.9,1.3l10.6,22.6c6.6-2.3,13.7-3.3,21-2.7
		l40.5,3.5l76.9-110.2c0.6-0.8,1.1-1.6,1.7-2.3l-23-49.1C458.5,121.5,447.7,112.1,434.7,107.9z"/>
	<path class="st1" d="M264.4,170.5l32.4,69.1c16.4,2.5,30.7,13,37.8,28.2l2.2,4.7c0.3-0.4,0.6-0.8,0.9-1.3l88.6-127
		c7.5-10.7,10.3-23.8,8.4-36.3c-3.6-1.2-7.4-2-11.3-2.3L287.3,94l-18.6,26.7C258.5,135.3,256.9,154.3,264.4,170.5z"/>
	<path class="st0" d="M319.2,287.3l9.3,19.9c5.3-5.4,11.8-9.5,18.9-12.1l-10.6-22.6C332.1,278.9,326.1,283.9,319.2,287.3z"/>
	<path class="st0" d="M336.8,272.5l-2.2-4.7c-7.1-15.2-21.3-25.7-37.8-28.2l22.4,47.7C326.1,283.9,332.1,278.9,336.8,272.5z"/>
	<path class="st0" d="M371.2,339.3l17,1.5c0.1-9.9,3.1-19.7,9-28.1l11.7-16.8l-40.5-3.5c-7.2-0.6-14.4,0.4-21,2.7l20.5,43.8
		C369,339.1,370.1,339.2,371.2,339.3z"/>
	<path class="st0" d="M328.5,307.2l1.7,3.5c7.1,15.2,21.3,25.7,37.8,28.2l-20.5-43.8C340.4,297.6,333.9,301.7,328.5,307.2z"/>
	<path class="st0" d="M565.4,337.7l39.5,84.3c12.3-12.6,17-30.7,12.4-47.8l-21.2-79.3l-25.3,36.3
		C569.2,333.6,567.3,335.7,565.4,337.7z"/>
	<path class="st3" d="M525.5,352.5l-18.2-1.6l-69.9,100.3c-0.6,0.8-1.1,1.6-1.7,2.3l23,49.1c7.1,15.1,21.1,25.6,37.4,28.1
		l108.3-108.3c0.2-0.2,0.3-0.4,0.5-0.5l-39.5-84.3C555.1,348.2,540.5,353.8,525.5,352.5z"/>
	<path class="st0" d="M392.9,362.5l42.7,91.1c0.6-0.8,1.2-1.5,1.7-2.3l69.9-100.3l-119.1-10.2C388.1,348.1,389.7,355.6,392.9,362.5z
		"/>
	<path class="st0" d="M531,164.4c-16.8-1.4-33.2,5.7-43.5,18.9l42.7,91.1c5,10.6,6,22.3,3.2,33.3c13.2,4.1,24.3,13.6,30.3,26.5
		l1.7,3.5c1.9-2,3.8-4.1,5.4-6.4l25.3-36.3L561.8,167L531,164.4z"/>
	<path class="st0" d="M408.9,295.9l113.8,9.7c3.7,0.3,7.2,1,10.7,2.1c2.7-11,1.7-22.7-3.2-33.3l-42.7-91.1c-0.6,0.8-1.2,1.5-1.7,2.3
		L408.9,295.9z"/>
	<path class="st0" d="M507.3,350.9l18.2,1.6c15,1.3,29.5-4.3,39.9-14.8l-1.7-3.5c-6-12.8-17.1-22.3-30.3-26.5
		c-1.5,5.8-3.9,11.4-7.5,16.5L507.3,350.9z"/>
	<path class="st0" d="M408.9,295.9l-11.7,16.8c-5.8,8.4-8.9,18.2-9,28.1l119.1,10.2l18.6-26.7c3.5-5.1,6-10.7,7.5-16.5
		c-3.4-1.1-7-1.8-10.7-2.1L408.9,295.9z"/>
</g>
<path class="st4" d="M80,150.8L299.4,24.1c15.5-8.9,34.5-8.9,50,0l219.5,126.7c15.5,8.9,25,25.4,25,43.3v253.4
	c0,17.9-9.6,34.4-25,43.3L349.5,617.5c-15.5,8.9-34.5,8.9-50,0L80,490.8c-15.5-8.9-25-25.4-25-43.3V194.1
	C55,176.2,64.5,159.7,80,150.8z"/>
<path class="st5" d="M272.2,29l243.5,65.2c17.3,4.6,30.7,18.1,35.4,35.4l65.2,243.5c4.6,17.3-0.3,35.7-12.9,48.3L425,599.6
	c-12.6,12.6-31,17.6-48.3,12.9l-243.5-65.2c-17.3-4.6-30.7-18.1-35.4-35.4L32.7,268.5c-4.6-17.3,0.3-35.7,12.9-48.3L223.9,42
	C236.5,29.3,254.9,24.4,272.2,29z"/>
</svg>
