<svg width="115" height="125" viewBox="0 0 115 125" version="1.1" xmlns="http://www.w3.org/2000/svg" xmlns:xlink="http://www.w3.org/1999/xlink">
<title>ico-dates-dark</title>
<desc>Created using Figma</desc>
<g id="Canvas" transform="translate(135 310)">
<g id="ico-dates-dark">
<g id="Vector">
<use xlink:href="#path0_fill" transform="translate(-135 -292.572)"/>
</g>
<g id="Vector">
<use xlink:href="#path1_fill" transform="translate(-57.175 -310)"/>
</g>
<g id="Vector">
<use xlink:href="#path2_fill" transform="translate(-108.044 -309.972)"/>
</g>
<g id="Vector">
<use xlink:href="#path3_fill" transform="translate(-86.4 -229.972)"/>
</g>
<g id="Vector">
<use xlink:href="#path4_fill" transform="translate(-86.475 -255.372)"/>
</g>
<g id="Vector">
<use xlink:href="#path5_fill" transform="translate(-111.775 -255.272)"/>
</g>
<g id="Vector">
<use xlink:href="#path6_fill" transform="translate(-60.9 -255.272)"/>
</g>
<g id="Vector">
<use xlink:href="#path7_fill" transform="translate(-60.875 -229.972)"/>
</g>
<g id="Vector">
<use xlink:href="#path8_fill" transform="translate(-111.675 -230.072)"/>
</g>
</g>
</g>
<defs>
<path id="path0_fill" d="M 93.7 0.2C 98.7 0.2 103.5 3.72529e-07 108.4 0.2C 112.5 0.4 115 3.4 115 7.4C 115 38 115 68.6 115 99.2C 115 100.7 114.6 102.4 114 103.8C 113 106.1 111.1 107.3 108.4 107.3C 75 107.3 41.7 107.3 8.3 107.3C 3 107.3 0 104.3 0 99C 0 68.6 0 38.2 0 7.8C 0 2.9 2.7 0.0999996 7.6 -3.8147e-07C 12 -3.8147e-07 16.5 -3.8147e-07 20.9 -3.8147e-07C 21 -3.8147e-07 21.1 0 21.3 0.1C 21.3 1.6 21.3 3.1 21.3 4.6C 21.3 11.3 25.4 15.5 32.1 15.5C 38.8 15.5 42.8 11.5 42.8 4.9C 42.8 3.3 42.8 1.7 42.8 -3.8147e-07C 52.5 -3.8147e-07 62.2 -3.8147e-07 72.1 -3.8147e-07C 72.1 1.5 72.1 3.1 72.1 4.7C 72.1 8.8 73.4 12.3 77.2 14.2C 81.4 16.2 85.7 16.2 89.6 13.6C 92.4 11.8 93.5 8.9 93.6 5.6C 93.8 4 93.7 2.2 93.7 0.2ZM 11.6 23.6C 11.6 47.8 11.6 71.8 11.6 95.9C 42.3 95.9 72.8 95.9 103.4 95.9C 103.4 71.8 103.4 47.7 103.4 23.6C 72.8 23.6 42.3 23.6 11.6 23.6Z"/>
<path id="path1_fill" d="M 10.075 13.7284C 10.075 16.4284 10.075 19.0284 10.075 21.7284C 9.975 24.9284 7.975 27.2284 5.075 27.2284C 2.375 27.2284 0.175002 25.2284 0.0750015 22.1284C -0.0249985 16.4284 -0.0249985 10.8284 0.0750015 5.12843C 0.175002 1.82843 2.575 -0.271575 5.675 0.0284251C 8.175 0.328425 9.975 2.42843 10.075 5.42843C 10.175 8.22843 10.075 10.9284 10.075 13.7284Z"/>
<path id="path2_fill" d="M 0.144445 13.5C 0.144445 11 0.0444448 8.5 0.144445 6C 0.144445 4.9 0.444444 3.7 0.844444 2.6C 1.64444 0.9 3.14444 0 5.04444 0C 7.04444 0 8.54444 0.9 9.34444 2.7C 9.74444 3.7 10.0444 4.9 10.0444 5.9C 10.1444 11 10.0444 16.1 10.0444 21.2C 10.0444 22 9.94444 22.9 9.64444 23.7C 8.94444 25.9 7.14444 27.3 4.84444 27.2C 2.74444 27.1 0.844444 25.7 0.344444 23.6C 0.144444 22.8 0.0444444 22 0.0444444 21.1C -0.0555556 19.8 0.0444444 18.6 0.0444444 17.3C 0.144444 16.1 0.144445 14.8 0.144445 13.5Z"/>
<path id="path3_fill" d="M 8.8 17.5C 7.2 17.5 5.5 17.5 3.9 17.5C 1.5 17.4 0.0999985 16 -1.52588e-06 13.6C -1.52588e-06 10.4 -1.52588e-06 7.2 -1.52588e-06 4C -1.52588e-06 1.5 1.6 0 4.1 0C 7.2 0 10.4 0 13.5 0C 16.2 0 17.7 1.5 17.8 4.2C 17.8 7.3 17.8 10.5 17.8 13.6C 17.8 16.1 16.3 17.5 13.8 17.6C 12.1 17.6 10.5 17.5 8.8 17.5Z"/>
<path id="path4_fill" d="M 8.875 17.6C 7.275 17.6 5.675 17.6 4.075 17.6C 1.675 17.6 0.174998 16.1 0.0749985 13.7C -0.0250015 10.4 -0.0250015 7.2 0.0749985 3.9C 0.174998 1.5 1.675 -1.52588e-06 4.075 -1.52588e-06C 7.375 -1.52588e-06 10.575 -1.52588e-06 13.875 -1.52588e-06C 16.375 -1.52588e-06 17.875 1.5 17.875 4C 17.875 7.1 17.875 10.2 17.875 13.3C 17.875 16.1 16.375 17.6 13.575 17.6C 12.075 17.6 10.475 17.6 8.875 17.6Z"/>
<path id="path5_fill" d="M 8.775 17.5C 7.175 17.5 5.575 17.5 3.975 17.5C 1.575 17.5 0.0749992 16.1 0.0749992 13.7C -0.0250008 10.3 -0.0250008 6.9 0.0749992 3.6C 0.0749992 1.3 1.575 7.62939e-07 3.875 7.62939e-07C 7.175 7.62939e-07 10.575 7.62939e-07 13.875 7.62939e-07C 16.075 7.62939e-07 17.575 1.4 17.575 3.6C 17.675 7.1 17.675 10.5 17.575 14C 17.475 16.2 16.075 17.6 13.775 17.6C 12.075 17.5 10.475 17.5 8.775 17.5Z"/>
<path id="path6_fill" d="M 8.7 7.62939e-07C 10.4 7.62939e-07 12 7.62939e-07 13.7 7.62939e-07C 16 0.100001 17.5 1.5 17.5 3.8C 17.6 7.1 17.6 10.4 17.5 13.7C 17.4 16.1 15.9 17.6 13.5 17.6C 10.3 17.6 7.1 17.6 3.9 17.6C 1.5 17.6 0.0999985 16.2 -1.52588e-06 13.8C -1.52588e-06 10.5 -1.52588e-06 7.2 -1.52588e-06 3.9C -1.52588e-06 1.5 1.5 0.0999992 3.9 0.0999992C 5.6 -7.6741e-07 7.1 7.62939e-07 8.7 7.62939e-07Z"/>
<path id="path7_fill" d="M 8.775 17.5C 7.175 17.5 5.475 17.5 3.875 17.5C 1.575 17.5 0.0749969 16.2 0.0749969 13.9C -0.0250031 10.5 -0.0250031 7.1 0.0749969 3.8C 0.174997 1.4 1.675 -1.42109e-14 4.075 -1.42109e-14C 7.175 -1.42109e-14 10.375 -1.42109e-14 13.475 -1.42109e-14C 15.975 -1.42109e-14 17.475 1.3 17.575 3.8C 17.675 7.2 17.675 10.6 17.575 13.9C 17.475 16.2 16.075 17.5 13.675 17.5C 11.975 17.5 10.375 17.5 8.775 17.5Z"/>
<path id="path8_fill" d="M 8.875 17.6C 7.175 17.6 5.575 17.6 3.875 17.6C 1.575 17.5 0.0749996 16.1 0.0749996 13.8C -0.0250004 10.5 -0.0250004 7.2 0.0749996 3.9C 0.0749996 1.5 1.675 1.52588e-06 4.075 1.52588e-06C 7.275 1.52588e-06 10.375 1.52588e-06 13.575 1.52588e-06C 15.975 1.52588e-06 17.475 1.4 17.475 3.8C 17.575 7.2 17.575 10.6 17.475 14.1C 17.375 16.3 15.975 17.6 13.675 17.6C 12.075 17.7 10.475 17.6 8.875 17.6Z"/>
</defs>
</svg>
