<svg width="63" height="87" viewBox="0 0 63 87" version="1.1" xmlns="http://www.w3.org/2000/svg" xmlns:xlink="http://www.w3.org/1999/xlink">
<title>ico=password</title>
<desc>Created using Figma</desc>
<g id="Canvas" transform="translate(-1065 25)">
<g id="ico=password">
<use xlink:href="#path0_fill" transform="translate(1065 -25)" fill="#FFFFFF"/>
</g>
</g>
<defs>
<path id="path0_fill" d="M 57.3 86.9C 39.9 86.9 22.5 86.9 5.2 86.9C 2.3 85.5 0 83.6 0 80.1C 4.44089e-15 67.7 0 55.2 0.1 42.8C 0.1 39 3.1 36.2 6.9 36.1C 7.8 36.1 8.7 36.1 9.8 36.1C 9.8 30.5 9.8 25.2 9.8 20C 9.8 11.3 14 5 22 1.8C 24 1 26.2 0.6 28.2 0C 30.2 0 32.3 0 34.3 0C 35.5 0.3 36.7 0.6 37.8 0.9C 47.4 3.5 52.7 10.4 52.7 20.3C 52.7 24.7 52.7 29.1 52.7 33.5C 52.7 34.3 52.8 35 52.8 35.9C 53.4 35.9 53.7 36 54.1 36C 60.1 36.2 62.5 38.6 62.5 44.5C 62.5 55.6 62.4 66.6 62.6 77.7C 62.7 82 61.4 85.1 57.3 86.9ZM 43.4 35.9C 43.4 35.2 43.5 34.5 43.5 33.9C 43.5 29 43.4 24.1 43.5 19.1C 43.6 15.7 42 13.3 39.3 11.5C 34.6 8.4 27.8 8.4 23.1 11.5C 20.4 13.3 18.8 15.7 18.9 19.1C 19 23 18.9 26.9 18.9 30.8C 18.9 32.4 18.9 34.1 18.9 35.8C 27.3 35.9 35.3 35.9 43.4 35.9ZM 37.3 74.5C 36.6 70.8 36 67.4 35.3 64C 35 62.5 35 61.4 36.3 60.2C 39.1 57.6 38.8 53.1 36.1 50.5C 33.5 47.9 29.2 47.9 26.5 50.4C 23.7 53 23.4 57.5 26.1 60.1C 27.5 61.5 27.5 62.7 27.2 64.3C 26.5 67.6 25.9 71 25.3 74.5C 29.4 74.5 33.2 74.5 37.3 74.5Z"/>
</defs>
</svg>
