<svg width="132" height="131" viewBox="0 0 132 131" version="1.1" xmlns="http://www.w3.org/2000/svg" xmlns:xlink="http://www.w3.org/1999/xlink">
<title>ico-personality-dark</title>
<desc>Created using Figma</desc>
<g id="Canvas" transform="translate(309 157)">
<g id="ico-personality-dark">
<g id="Vector">
<use xlink:href="#path0_fill" transform="translate(-309 -157)"/>
</g>
<g id="Vector">
<use xlink:href="#path1_fill" transform="translate(-257.4 -112.116)"/>
</g>
</g>
</g>
<defs>
<path id="path0_fill" d="M 67.1 0C 69.1 5 70.5 10.1 72 15.3C 74.2 22.7 75.6 30.2 76.3 37.9C 76.3 38.2 76.3 38.6 76.3 39C 75.4 38.7 74.7 38.3 73.9 38.1C 70.9 37.1 67.8 36.8 64.9 38.3C 62.2 39.6 60.4 41.9 59.1 44.6C 57.7 47.5 56.4 50.5 55.1 53.4C 54.8 54 54.5 54.1 53.9 54C 50.9 53.4 48 53.8 45.3 55C 42.5 56.3 40.3 58.3 38.7 60.9C 36.2 64.7 34.9 69 34.4 73.5C 34.4 73.6 34.4 73.7 34.4 74.1C 34.7 73.8 34.9 73.7 35.1 73.5C 37.4 70.7 39.9 68.1 42.8 65.9C 45.2 64 47.7 62.4 50.8 61.8C 51.1 61.7 51.3 61.7 51.7 61.6C 51.6 62 51.5 62.3 51.4 62.5C 49.4 67.7 47.7 73.1 46.4 78.5C 46 80 45.8 81.5 45.5 82.9C 45.4 83.5 45.2 83.7 44.6 83.5C 38.5 81.8 33.2 78.7 28.5 74.6C 22.7 69.6 18 63.6 14 57C 8.8 48.6 5 39.7 1.7 30.5C 1.3 29.3 0.8 28.2 0.4 27C 0.1 26.5 0 26 0 25.5C 0 24.4 0 23.2 0 22.1C 0 21.6 0.2 21.2 0.6 21C 1.6 20.4 2.7 19.7 3.7 19.1C 7.8 16.7 11.8 14.2 15.9 11.8C 21.7 8.5 27.8 5.7 34.3 4C 40 2.5 45.9 1.5 51.7 0.7C 52.6 0.6 53.5 0.5 54.5 0.3C 54.8 0.3 55.1 0.1 55.4 1.05471e-15C 59.3 0 63.2 0 67.1 0ZM 34.2 35.7C 31.5 35.5 28.9 36 26.6 37.2C 22.2 39.5 20.3 43.6 19.3 48.2C 19.2 48.7 19.4 49 19.9 49C 21 49 22 49.1 23.1 49C 26.1 48.9 28.8 48.1 31.2 46.3C 34.4 43.8 35.9 40.2 36.7 36.3C 36.8 35.8 36.6 35.6 36.1 35.6C 35.6 35.7 34.9 35.7 34.2 35.7ZM 57.4 26.1C 57 26.1 56.6 26.1 56.2 26.2C 52.4 26.6 49.4 28.5 46.6 31C 46.2 31.4 46.3 31.6 46.7 31.9C 47.5 32.5 48.3 33.1 49.1 33.7C 51.5 35.3 54.2 36.4 57.2 36.3C 61.3 36.2 64.5 34.1 67.5 31.4C 67.8 31.1 67.8 30.8 67.5 30.6C 66.7 30 65.9 29.3 65 28.8C 62.6 27.2 60.1 26.2 57.4 26.1Z"/>
<path id="path1_fill" d="M -1.52588e-06 53.0163C -1.52588e-06 47.3163 0.699998 41.8163 2 36.3163C 4.4 26.1163 8.2 16.5163 12.7 7.1163C 13.3 5.81631 13.8 4.5163 14.4 3.2163C 14.5 3.0163 14.6 2.81631 14.7 2.61631C 15.9 0.216305 17.1 -0.483694 19.6 0.316306C 26.7 2.41631 33.9 4.4163 40.9 6.7163C 48.2 9.1163 55 12.7163 61.3 17.1163C 66.7 20.9163 72.1 24.9163 77.5 28.8163C 78 29.2163 78.5 29.6163 78.8 30.1163C 79.6 31.2163 79.6 32.4163 79 33.5163C 78.1 35.4163 77 37.2163 76.1 39.1163C 72.5 46.2163 68.6 53.0163 63.9 59.4163C 58.9 66.2163 53.3 72.4163 46.5 77.4163C 41.2 81.3163 35.4 84.1163 28.9 85.3163C 24.6 86.1163 20.4 86.1163 16.2 85.0163C 13.6 84.3163 11.7 82.7163 9.9 80.8163C 6 76.8163 3.6 72.1163 2 66.8163C 0.599998 62.3163 0.0999985 57.7163 -1.52588e-06 53.0163ZM 10.8 46.8163C 10.7 46.8163 10.7 46.9163 10.6 46.9163C 10.6 47.2163 10.5 47.4163 10.5 47.7163C 10.6 49.7163 10.6 51.7163 10.8 53.8163C 11.1 57.3163 11.9 60.6163 13.6 63.7163C 15.1 66.5163 17.3 68.8163 20.3 70.1163C 23.7 71.6163 27.2 71.5163 30.7 70.5163C 35.4 69.2163 39.4 66.6163 43.2 63.5163C 43.4 63.4163 43.5 63.2163 43.7 62.9163C 43.3 62.9163 43 63.0163 42.8 63.0163C 38.8 63.6163 34.8 63.7163 30.7 63.4163C 25.8 62.9163 21.6 60.9163 18.3 57.3163C 15.5 54.3163 13.2 51.1163 11.3 47.6163C 11.1 47.3163 10.9 47.1163 10.8 46.8163ZM 44.2 40.2163C 42.7 40.4163 41.1 40.6163 39.6 40.8163C 39 40.9163 38.8 41.1163 39.1 41.7163C 39.5 42.4163 39.8 43.1163 40.2 43.7163C 43 48.4163 46.9 51.2163 52.5 51.4163C 54.2 51.4163 55.9 51.2163 57.6 50.9163C 58.5 50.8163 58.5 50.6163 58.1 49.9163C 57.7 49.1163 57.2 48.3163 56.8 47.5163C 53.9 42.9163 49.8 40.3163 44.2 40.2163ZM 27.1 38.8163C 28.7 38.6163 30.3 38.4163 31.9 38.2163C 32.4 38.1163 32.5 37.9163 32.3 37.4163C 31.9 36.6163 31.5 35.8163 31 35.0163C 28.8 31.4163 25.8 28.8163 21.4 27.9163C 18.8 27.4163 16.3 27.6163 13.7 28.1163C 13.1 28.2163 13 28.5163 13.3 29.0163C 13.7 29.8163 14.1 30.6163 14.6 31.3163C 17.4 36.0163 21.5 38.7163 27.1 38.8163Z"/>
</defs>
</svg>
