<svg width="31" height="66" viewBox="0 0 31 66" version="1.1" xmlns="http://www.w3.org/2000/svg" xmlns:xlink="http://www.w3.org/1999/xlink">
<title>ico-facebook</title>
<desc>Created using Figma</desc>
<g id="Canvas" transform="translate(-33 -185)">
<g id="ico-facebook">
<use xlink:href="#path0_fill" transform="translate(33 185)"/>
</g>
</g>
<defs>
<path id="path0_fill" d="M 30.6 2.77556e-17C 30.6 0.2 30.6 0.4 30.6 0.6C 30.6 4 30.6 7.3 30.6 10.7C 30.6 11.2 30.4 11.3 30 11.3C 28.2 11.3 26.4 11.3 24.6 11.3C 24 11.3 23.3 11.4 22.7 11.5C 21.5 11.7 20.7 12.7 20.7 14C 20.6 16.4 20.6 18.7 20.6 21.1C 20.6 21.5 20.9 21.5 21.1 21.5C 24.1 21.5 27 21.5 30 21.5C 30.2 21.5 30.4 21.5 30.7 21.5C 30.3 25.3 29.9 29 29.5 32.8C 26.5 32.8 23.6 32.8 20.5 32.8C 20.5 43.8 20.5 54.7 20.5 65.6C 16.4 65.6 12.3 65.6 8.2 65.6C 8.2 54.7 8.2 43.8 8.2 32.8C 5.5 32.8 2.8 32.8 0 32.8C 0 32.6 0 32.4 0 32.3C 0 28.9 0 25.5 0 22.1C 0 21.6 0.2 21.5 0.6 21.5C 2.9 21.5 5.2 21.5 7.5 21.5C 8.2 21.5 8.2 21.5 8.2 20.8C 8.2 17.8 8.2 14.8 8.3 11.8C 8.4 9.6 8.8 7.4 9.9 5.4C 11 3.2 12.8 1.7 15.1 1C 16.4 0.6 17.7 0.4 19.1 0.1C 19.3 0.1 19.5 0 19.7 0C 23.3 2.77556e-17 27 2.77556e-17 30.6 2.77556e-17Z"/>
</defs>
</svg>
