<svg width="94" height="72" viewBox="0 0 94 72" version="1.1" xmlns="http://www.w3.org/2000/svg" xmlns:xlink="http://www.w3.org/1999/xlink">
<title>ico-crime</title>
<desc>Created using Figma</desc>
<g id="Canvas" transform="translate(-945 -113)">
<g id="ico-crime">
<g id="Vector">
<use xlink:href="#path0_fill" transform="translate(971.713 118.35)" fill="#FFFFFF"/>
</g>
<g id="Vector">
<use xlink:href="#path1_fill" transform="translate(945 176.4)" fill="#FFFFFF"/>
</g>
<g id="Vector">
<use xlink:href="#path2_fill" transform="translate(948.138 167.4)" fill="#FFFFFF"/>
</g>
<g id="Vector">
<use xlink:href="#path3_fill" transform="translate(991.577 113)" fill="#FFFFFF"/>
</g>
<g id="Vector">
<use xlink:href="#path4_fill" transform="translate(966.121 138.4)" fill="#FFFFFF"/>
</g>
</g>
</g>
<defs>
<path id="path0_fill" d="M 30.825 24.45C 32.525 26.25 34.325 27.95 36.025 29.65C 36.225 29.85 36.525 29.85 36.825 29.85C 40.525 30.25 42.625 32.45 43.025 36.15C 43.025 36.55 43.325 36.95 43.625 37.15C 50.825 44.35 58.025 51.55 65.225 58.75C 66.525 60.05 66.625 60.95 65.925 62.55C 65.125 64.25 63.825 65.45 61.925 65.95C 60.825 66.25 59.925 65.95 59.125 65.15C 51.825 58.05 44.625 50.85 37.425 43.65C 36.925 43.15 36.425 42.85 35.725 42.85C 32.425 42.45 30.225 40.05 29.925 36.75C 29.925 36.45 29.825 36.15 29.725 35.95C 28.025 34.15 26.225 32.45 24.425 30.65C 22.725 32.35 21.125 33.95 19.525 35.55C 18.425 36.65 17.925 36.65 16.825 35.55C 11.525 30.25 6.125 24.85 0.825 19.55C -0.275 18.45 -0.275 17.95 0.825 16.85C 6.225 11.45 11.525 6.15 16.925 0.75C 17.925 -0.25 18.525 -0.25 19.525 0.75C 24.925 6.15 30.225 11.45 35.625 16.85C 36.725 17.95 36.725 18.45 35.625 19.45C 34.025 21.05 32.525 22.55 30.925 24.15C 30.925 24.25 30.925 24.35 30.825 24.45Z"/>
<path id="path1_fill" d="M 27.1382 8.2C 19.1382 8.2 11.1382 8.2 3.13822 8.2C 1.63822 8.2 0.938222 7.8 0.438222 6.4C -0.161778 4.7 -0.161778 3.1 0.538222 1.5C 1.03822 0.500002 1.73822 1.52588e-06 2.93822 1.52588e-06C 19.0382 1.52588e-06 35.0382 1.52588e-06 51.1382 1.52588e-06C 52.3382 1.52588e-06 53.1382 0.5 53.6382 1.6C 54.3382 3.3 54.3382 5.1 53.6382 6.8C 53.2382 7.8 52.4382 8.3 51.2382 8.3C 43.2382 8.2 35.1382 8.2 27.1382 8.2Z"/>
<path id="path2_fill" d="M 24.1 1.52588e-06C 31.2 1.52588e-06 38.3 1.52588e-06 45.4 1.52588e-06C 45.9 1.52588e-06 46.3 -1.53482e-06 46.8 0.199998C 47.7 0.499998 48.2 1.2 48.1 2.1C 48.1 3 47.6 3.6 46.7 3.9C 46.3 4 45.8 4.1 45.3 4.1C 31.1 4.1 16.9 4.1 2.7 4.1C 2.3 4.1 2 4.1 1.6 4C 0.6 3.7 -9.53674e-08 3 -9.53674e-08 2C -9.53674e-08 1 0.8 0.2 1.8 0.1C 2.1 0 2.5 0.1 2.8 0.1C 9.9 0 17 1.52588e-06 24.1 1.52588e-06Z"/>
<path id="path3_fill" d="M 2.56101 0C 2.66101 0.1 3.06101 0.2 3.36101 0.5C 9.36101 6.5 15.361 12.5 21.361 18.5C 22.161 19.3 22.061 20.2 21.161 21.1C 20.261 22 19.361 22.1 18.561 21.3C 13.861 16.7 9.16101 12 4.46101 7.3C 3.26101 6.1 2.06101 4.8 0.761012 3.6C 0.161012 3 -0.238987 2.5 0.161013 1.6C 0.561013 0.7 1.46101 0 2.56101 0Z"/>
<path id="path4_fill" d="M 22.0177 19.5C 21.9177 20.7 21.2177 21.4 20.3177 21.9C 19.4177 22.3 18.9177 21.9 18.3177 21.3C 12.5177 15.3 6.61769 9.5 0.717691 3.6C 0.117691 3 -0.182308 2.5 0.117692 1.7C 0.517692 0.8 1.21769 0.0999996 2.31769 -3.8147e-07C 2.61769 -3.8147e-07 3.11769 0.2 3.31769 0.5C 9.41769 6.5 15.4177 12.6 21.5177 18.7C 21.7177 18.9 21.9177 19.3 22.0177 19.5Z"/>
</defs>
</svg>
