<svg width="103" height="123" viewBox="0 0 103 123" version="1.1" xmlns="http://www.w3.org/2000/svg" xmlns:xlink="http://www.w3.org/1999/xlink">
<title>ico-names-dark</title>
<desc>Created using Figma</desc>
<g id="Canvas" transform="translate(122 112)">
<g id="ico-names-dark">
<g id="Vector">
<use xlink:href="#path0_fill" transform="translate(-122 -89.4444)"/>
</g>
<g id="Vector">
<use xlink:href="#path1_fill" transform="translate(-80.2 -112)"/>
</g>
<g id="Vector">
<use xlink:href="#path2_fill" transform="translate(-93.9196 -30.5243)"/>
</g>
<g id="Vector">
<use xlink:href="#path3_fill" transform="translate(-84.1513 -58.2)"/>
</g>
</g>
</g>
<defs>
<path id="path0_fill" d="M 35.75 0.0444452C 35.95 1.74445 35.95 3.14444 36.25 4.44444C 37.25 10.1444 41.75 14.3444 47.55 14.8444C 49.55 15.0444 51.45 15.0444 53.45 14.9444C 61.05 14.5444 65.75 9.64445 66.15 2.04445C 66.15 1.54445 66.25 0.944444 66.25 0.244444C 66.85 0.144444 67.45 0.0444452 68.05 0.0444452C 72.75 0.0444452 77.55 -0.0555548 82.25 0.0444452C 93.85 0.244445 101.95 8.44444 102.05 20.0444C 102.15 34.0444 102.05 48.1444 102.05 62.1444C 102.05 68.0444 102.05 73.9444 102.05 79.8444C 101.95 92.2444 93.85 100.344 81.55 100.344C 61.05 100.344 40.55 100.344 20.05 100.344C 8.65 100.344 0.25 92.4444 0.15 81.0444C -0.05 60.3444 -0.05 39.7444 0.15 19.0444C 0.25 8.34445 8.45 0.344445 19.15 0.0444452C 24.65 -0.0555548 30.15 0.0444452 35.75 0.0444452ZM 50.95 90.8444C 61.15 90.8444 71.35 90.8444 81.45 90.8444C 88.35 90.8444 92.25 86.9444 92.35 80.0444C 92.35 74.2444 92.35 68.3444 92.35 62.5444C 92.35 48.3444 92.35 34.1444 92.35 19.9444C 92.35 13.6444 88.25 9.64444 81.95 9.64444C 80.25 9.64444 78.65 9.74444 76.95 9.64444C 75.15 9.44444 74.15 10.0444 73.35 11.8444C 71.85 15.4444 69.25 18.3444 66.05 20.6444C 59.85 25.1444 52.75 25.1444 45.65 24.3444C 38.95 23.6444 33.25 20.4444 30.35 14.5444C 28.05 9.94444 24.95 9.14444 20.65 9.64444C 20.35 9.64444 20.05 9.64444 19.75 9.64444C 13.75 9.74444 9.75 13.8444 9.75 19.8444C 9.75 39.9444 9.75 60.0444 9.75 80.2444C 9.75 87.0444 13.65 90.9444 20.55 90.9444C 30.65 90.8444 40.85 90.8444 50.95 90.8444Z"/>
<path id="path1_fill" d="M 18.45 15.9C 18.45 18.7 18.55 21.6 18.45 24.4C 18.35 29.1 15.65 31.6 11.05 31.7C 9.65 31.7 8.25 31.7 6.75 31.7C 3.15 31.6 0.25 29.1 0.15 25.6C -0.05 19.2 -0.05 12.7 0.15 6.2C 0.25 2.5 3.15 0.1 6.85 1.49011e-09C 8.45 1.49011e-09 9.95 1.49011e-09 11.55 1.49011e-09C 15.25 0.1 17.95 2.5 18.25 6.3C 18.35 7.9 18.35 9.6 18.35 11.3C 18.35 12.7 18.35 14.3 18.45 15.9Z"/>
<path id="path2_fill" d="M 22.9696 24.6243C 18.1696 24.2243 13.3696 24.1243 8.5696 23.4243C 1.0696 22.2243 -1.9304 16.3243 1.2696 9.42426C 2.9696 5.72426 5.6696 2.82426 8.8696 0.524263C 9.3696 0.124263 10.5696 0.124264 11.0696 0.424264C 18.2696 6.02426 27.9696 5.72426 34.5696 0.424264C 34.9696 0.124264 36.0696 -0.175739 36.3696 0.124261C 41.1696 3.82426 45.3696 7.92426 45.5696 14.5243C 45.6696 18.8243 43.6696 21.9243 39.3696 22.8243C 35.1696 23.7243 30.7696 23.8243 26.4696 24.3243C 25.2696 24.4243 24.0696 24.3243 22.9696 24.3243C 22.9696 24.4243 22.9696 24.5243 22.9696 24.6243Z"/>
<path id="path3_fill" d="M 13.3013 1.52588e-06C 20.5013 1.52588e-06 26.4013 5.9 26.4013 13.1C 26.4013 20.5 20.6013 26.4 13.2013 26.4C 5.80125 26.4 -0.0987459 20.4 0.00125414 12.9C 0.101254 5.7 6.00125 1.52588e-06 13.3013 1.52588e-06Z"/>
</defs>
</svg>
