<svg width="46" height="38" viewBox="0 0 46 38" version="1.1" xmlns="http://www.w3.org/2000/svg" xmlns:xlink="http://www.w3.org/1999/xlink">
<title>ico-forward</title>
<desc>Created using Figma</desc>
<g id="Canvas" transform="translate(-769 114)">
<g id="ico-forward">
<use xlink:href="#path0_fill" transform="matrix(-1 0 0 1 815 -114)" fill="#FFFFFF"/>
</g>
</g>
<defs>
<path id="path0_fill" d="M 46 38C 45.6667 37.7751 45.1111 37.5503 44.8889 37.213C 39.3333 30.1302 31.8889 26.7574 23.1111 25.858C 21.4444 25.7456 19.7778 25.6331 18 25.5207C 18 29.0059 18 32.3787 18 36.2012C 17.2222 35.5266 16.7778 35.0769 16.3333 34.6272C 11.3333 29.568 6.33333 24.5089 1.33333 19.4497C 0.888889 19 0.444444 18.6627 0 18.3254C 0 18.213 0 18.1006 0 17.9882C 5.44444 12.5917 10.7778 7.08284 16.2222 1.68639C 16.6667 1.12426 17.2222 0.674556 17.8889 0C 17.8889 3.59763 17.8889 6.85799 17.8889 10.1183C 19.5556 10.568 21.2222 10.9053 22.7778 11.2426C 33 14.0533 39.7778 20.6864 43.6667 30.4675C 44.5556 32.9408 45.2222 35.5266 46 38Z"/>
</defs>
</svg>
