<svg width="14" height="21" viewBox="0 0 14 21" version="1.1" xmlns="http://www.w3.org/2000/svg" xmlns:xlink="http://www.w3.org/1999/xlink">
<title>ico-help</title>
<desc>Created using Figma</desc>
<g id="Canvas" transform="translate(-905 80)">
<g id="ico-help">
<use xlink:href="#path0_fill" transform="translate(905.084 -79.185)" fill="#FFFFFF"/>
</g>
</g>
<defs>
<path id="path0_fill" d="M 7.2 9C 8 9 8.7 8.7 9.1 8.2C 9.6 7.7 9.8 7 9.8 6.2C 9.8 5.4 9.5 4.8 9 4.2C 8.4 3.8 7.7 3.5 6.8 3.5C 6.3 3.5 5.9 3.6 5.5 3.8C 5.1 4 4.8 4.2 4.5 4.5C 4.2 4.8 4 5.1 3.9 5.5C 3.7 5.9 3.6 6.3 3.6 6.7L 3.6 7.9L 0 7.9L 0 6.4C 0 5.6 0.2 4.8 0.5 4C 0.8 3.2 1.2 2.5 1.8 2C 2.4 1.5 3.1 0.9 4 0.6C 4.8 0.2 5.8 0 6.9 0C 7.9 0 8.8 0.2 9.6 0.5C 10.4 0.8 11.1 1.3 11.7 1.8C 12.3 2.4 12.7 3 13 3.8C 13.3 4.6 13.5 5.4 13.5 6.3L 13.5 6.5C 13.5 7.3 13.4 8 13.2 8.7C 13 9.4 12.6 10 12.2 10.5C 11.8 11 11.3 11.4 10.6 11.7C 10 12 9.3 12.2 8.5 12.2C 8.2 12.2 8 12.3 7.9 12.4C 7.8 12.5 7.7 12.8 7.7 13L 7.7 13.9L 4.2 13.9L 4.2 11.5C 4.2 10.8 4.4 10.2 4.9 9.7C 5.4 9.2 6 9 6.7 9L 7.2 9ZM 8.6 17.5C 8.6 17.9 8.5 18.2 8.4 18.5C 8.3 18.8 8.1 19.1 7.8 19.3C 7.6 19.5 7.3 19.7 7 19.9C 6.7 20 6.3 20.1 6 20.1C 5.6 20.1 5.3 20 5 19.9C 4.7 19.8 4.4 19.6 4.2 19.3C 4 19.1 3.8 18.8 3.6 18.5C 3.5 18.2 3.4 17.8 3.4 17.5C 3.4 17.1 3.5 16.8 3.6 16.5C 3.7 16.2 3.9 15.9 4.2 15.7C 4.5 15.5 4.7 15.3 5 15.1C 5.3 15 5.7 14.9 6 14.9C 6.4 14.9 6.7 15 7 15.1C 7.3 15.2 7.6 15.4 7.8 15.7C 8 15.9 8.2 16.2 8.4 16.5C 8.5 16.8 8.6 17.1 8.6 17.5Z"/>
</defs>
</svg>
