<svg width="79" height="89" viewBox="0 0 79 89" version="1.1" xmlns="http://www.w3.org/2000/svg" xmlns:xlink="http://www.w3.org/1999/xlink">
<title>ico-liberty</title>
<desc>Created using Figma</desc>
<g id="Canvas" transform="translate(-1003 -301)">
<g id="ico-liberty">
<use xlink:href="#path0_fill" transform="translate(1003 301)" fill="#FFFFFF"/>
</g>
</g>
<defs>
<path id="path0_fill" d="M 5.6 21.9758C 3.7 20.0758 1.9 18.2758 0 16.4758C 21.9 -5.82423 58.2 -5.12423 79 16.3758C 77.2 18.1758 75.3 20.0758 73.5 21.8758C 64 12.7758 52.8 7.87577 39.5 7.87577C 26.2 7.87577 15 12.8758 5.6 21.9758ZM 34.5 59.6758C 34.7 59.7758 34.8 59.8758 35 59.8758C 36.3 60.4758 37.6 60.8758 39.1 60.4758C 40.5 60.0758 41.4 59.1758 41.8 57.8758C 42 57.2758 41.9 57.0758 41.3 56.8758C 38.4 55.4758 35.4 54.0758 32.5 52.6758C 31.6 52.2758 31.2 52.3758 30.6 53.1758C 30 54.1758 29.4 55.0758 28.7 56.0758C 27.5 57.9758 26.3 59.7758 25.1 61.6758C 24.6 62.4758 24.6 63.1758 25.1 63.8758C 25.2 63.9758 25.2 64.0758 25.3 64.1758C 28 68.0758 30.7 71.9758 33.5 75.8758C 34 76.6758 34.2 77.2758 34.1 78.2758C 33.5 81.5758 33.1 84.9758 32.6 88.3758C 32.6 88.5758 32.6 88.7758 32.5 88.9758C 32.6 88.9758 32.7 88.9758 32.8 88.9758C 38.1 88.9758 43.4 88.9758 48.7 88.9758C 49 88.9758 49 88.8758 49 88.5758C 49 85.4758 49 82.2758 49 79.1758C 49 78.8758 49.1 78.5758 49.2 78.2758C 50.6 75.3758 52 72.5758 53.4 69.7758C 54.2 68.2758 54.2 66.7758 54.2 65.1758C 54.1 65.0758 54.1 65.0758 54 64.9758C 53.9 65.0758 53.9 65.2758 53.8 65.3758C 52.2 66.9758 50.6 68.6758 49 70.2758C 48.8 70.4758 48.6 70.5758 48.3 70.3758C 47.7 70.0758 47.1 69.7758 46.5 69.3758C 45.7 68.9758 45 68.5758 44.1 68.1758C 43.6 70.5758 43.2 72.9758 42.8 75.2758L 42.7 75.2758C 41.4 69.4758 38.7 64.7758 32.9 62.3758C 33.5 61.5758 34 60.6758 34.5 59.6758ZM 41.9 85.9758C 41.8 84.2758 41.8 82.5758 41.7 80.8758C 41.7 80.6758 41.6 80.3758 41.4 80.2758C 40.8 79.5758 40.1 78.9758 39.4 78.2758C 41.4 79.1758 43.4 79.4758 45.5 78.9758L 45.5 79.0758C 45.4 79.1758 45.3 79.2758 45.2 79.2758C 44.6 79.6758 44.1 80.0758 43.5 80.4758C 43.2 80.6758 43.1 80.8758 43 81.2758C 42.7 83.2758 42.3 85.2758 42 87.2758L 41.9 87.2758C 41.9 86.7758 41.9 86.3758 41.9 85.9758ZM 17.4 32.4758C 22.6 27.6758 28.7 24.6758 35.9 23.8758C 41.3 23.2758 46.6 23.8758 51.6 25.9758C 55.6 27.5758 59.1 29.9758 62.2 32.8758C 62.4 33.0758 62.5 33.1758 62.8 32.8758C 64.2 31.4758 65.7 29.9758 67.1 28.5758C 67.4 28.2758 67.7 27.8758 68.1 27.5758C 58.9 18.6758 48 14.7758 35.5 15.9758C 26 16.8758 18 20.7758 11.2 27.4758C 13.1 29.3758 14.9 31.1758 16.8 32.9758C 16.9 32.8758 17.2 32.6758 17.4 32.4758ZM 22.4 38.6758C 24.2 40.4758 26.1 42.3758 27.9 44.1758C 31.1 41.0758 35 39.3758 39.6 39.3758C 44.2 39.3758 48 41.0758 51.3 44.1758C 53.2 42.2758 55 40.4758 56.8 38.6758C 47.8 28.8758 30.9 29.2758 22.4 38.6758ZM 52.2 56.7758C 51.6 56.0758 51 55.3758 50.3 54.7758C 49.8 54.3758 49.3 53.9758 48.8 53.6758C 48.5 53.4758 48.3 53.4758 48 53.7758C 46.1 56.4758 44.1 59.0758 42.1 61.7758C 41.9 62.0758 41.9 62.2758 42.1 62.4758C 43 63.5758 44 64.4758 45.2 65.2758C 45.4 65.3758 45.6 65.3758 45.8 65.1758C 48 62.7758 50.1 60.3758 52.3 57.9758C 52.4 57.8758 52.5 57.6758 52.6 57.5758C 52.5 57.2758 52.4 56.9758 52.2 56.7758ZM 42.4 60.0758C 42.4 59.9758 42.5 59.9758 42.5 59.8758C 44.1 57.4758 45.7 55.1758 47.4 52.7758C 47.6 52.3758 47.6 52.1758 47.3 51.8758C 46.1 50.4758 44.6 49.5758 42.9 48.9758C 42.5 48.8758 42.3 48.9758 42.1 49.2758C 41.5 50.3758 40.8 51.4758 40.1 52.5758C 39.7 53.2758 39.3 53.8758 38.9 54.5758C 39.1 54.6758 39.2 54.7758 39.3 54.7758C 40.1 55.1758 40.9 55.6758 41.7 56.0758C 42.2 56.3758 42.5 56.7758 42.6 57.3758C 42.6 57.8758 42.6 58.2758 42.5 58.7758C 42.5 59.1758 42.4 59.5758 42.4 60.0758C 42.4 60.0758 42.3 60.0758 42.4 60.0758ZM 55.6 62.2758C 55.1 60.9758 54.2 59.8758 53.1 59.0758C 52.8 58.8758 52.6 58.9758 52.4 59.1758C 50.4 61.3758 48.5 63.5758 46.5 65.6758C 46.2 65.9758 46.2 66.1758 46.4 66.4758C 46.9 67.2758 47.6 67.9758 48.5 68.5758C 48.7 68.7758 48.9 68.6758 49.1 68.4758C 49.5 68.0758 50 67.6758 50.4 67.2758C 52 65.7758 53.7 64.3758 55.3 62.8758C 55.5 62.7758 55.6 62.5758 55.7 62.4758C 55.7 62.3758 55.6 62.2758 55.6 62.2758ZM 38.2 54.0758C 39.2 52.4758 40.2 50.8758 41.1 49.1758C 41.3 48.8758 41.2 48.6758 41 48.4758C 40.4 48.0758 39.9 47.5758 39.2 47.1758C 38.4 46.7758 37.5 46.4758 36.6 46.1758C 36.3 46.0758 36 46.1758 35.8 46.4758C 34.9 48.1758 33.9 49.8758 33 51.4758C 33 51.7758 33 51.8758 33.3 51.9758C 33.9 52.2758 34.4 52.4758 35 52.7758C 36 53.2758 37.1 53.7758 38.1 54.2758C 38.1 54.1758 38.1 54.1758 38.2 54.0758Z"/>
</defs>
</svg>
