<svg width="86" height="72" viewBox="0 0 86 72" version="1.1" xmlns="http://www.w3.org/2000/svg" xmlns:xlink="http://www.w3.org/1999/xlink">
<title>ico-pwned</title>
<desc>Created using Figma</desc>
<g id="Canvas" transform="translate(-900 3)">
<g id="ico-pwned">
<g id="Vector">
<use xlink:href="#path0_fill" transform="translate(920.976 25.7107)" fill="#FFFFFF"/>
</g>
<g id="Vector">
<use xlink:href="#path1_fill" transform="translate(940.776 22.5107)" fill="#FFFFFF"/>
</g>
<g id="Vector">
<use xlink:href="#path2_fill" transform="translate(900.675 -2.68999)" fill="#FFFFFF"/>
</g>
<g id="Vector">
<use xlink:href="#path3_fill" transform="translate(909.101 5.78415)" fill="#FFFFFF"/>
</g>
<g id="Vector">
<use xlink:href="#path4_fill" transform="translate(915.876 12.4108)" fill="#FFFFFF"/>
</g>
</g>
</g>
<defs>
<path id="path0_fill" d="M 0.3 19.2C 6 20.2 11.2 19.3 16.4 16.3C 16.7 16.7 17 17.2 17.3 17.5C 21.5 21.7 25.6 25.9 29.8 30C 31.3 31.5 32.4 31.5 34 30C 43.7 20.3 53.5 10.5 63.2 0.800001C 63.4 0.600001 63.6 0.3 63.8 -3.8147e-07C 63.9 -3.8147e-07 64 0.1 64.1 0.1C 64.2 0.8 64.3 1.5 64.3 2.1C 64.3 9.3 64.3 16.4 64.3 23.6C 64.3 28.3 64.3 33.1 64.3 37.8C 64.3 41.2 62.5 43 59.1 43C 41.1 43 23.2 43 5.2 43C 3.7 43 2.4 42.7 1.3 41.6C 0.4 40.7 -7.62939e-07 39.6 -7.62939e-07 38.3C -7.62939e-07 32.1 -7.62939e-07 25.9 -7.62939e-07 19.7C 0.199999 19.7 0.3 19.5 0.3 19.2Z"/>
<path id="path1_fill" d="M 7.4 7.62939e-07C 18.3 7.62939e-07 29.1 7.62939e-07 39.7 7.62939e-07C 30.4 9.4 21 18.8 11.6 28.1C 7.9 24.4 3.9 20.4 -1.52588e-06 16.5C 4.7 12.1 7.2 6.6 7.4 7.62939e-07Z"/>
<path id="path2_fill" d="M 22.5007 44.9007C 10.0007 44.9007 -0.0992638 34.8007 0.000736216 22.5007C 0.100736 10.0007 10.2007 -0.0992638 22.6007 0.000736216C 35.0007 0.100736 45.0007 10.2007 44.9007 22.7007C 44.8007 34.9007 34.7007 44.9007 22.5007 44.9007ZM 3.60074 22.4007C 3.60074 32.8007 12.0007 41.4007 22.4007 41.4007C 32.9007 41.5007 41.5007 32.9007 41.5007 22.4007C 41.5007 12.0007 33.0007 3.60074 22.5007 3.60074C 12.1007 3.50074 3.60074 12.0007 3.60074 22.4007Z"/>
<path id="path3_fill" d="M 3.07497 22.7266C -1.42503 17.4266 -0.925028 9.0266 4.17497 4.0266C 9.77497 -1.4734 17.975 -0.873401 22.575 3.0266C 16.075 9.5266 9.57497 16.1266 3.07497 22.7266Z"/>
<path id="path4_fill" d="M -1.90735e-07 19.3C 6.4 12.8 12.7 6.4 19.1 3.8147e-07C 22.5 4.9 22.2 12.5 17.1 17.5C 11.8 22.5 4.3 22.3 -1.90735e-07 19.3Z"/>
</defs>
</svg>
