<svg width="69" height="61" viewBox="0 0 69 61" version="1.1" xmlns="http://www.w3.org/2000/svg" xmlns:xlink="http://www.w3.org/1999/xlink">
<title>ico-danger</title>
<desc>Created using Figma</desc>
<g id="Canvas" transform="translate(-935 215)">
<g id="ico-danger">
<use xlink:href="#path0_fill" transform="translate(935 -215)" fill="#FFFF00"/>
</g>
</g>
<defs>
<path id="path0_fill" d="M 32.3078 37.475C 32.6078 36.675 33.0078 35.975 33.4078 35.175C 33.5078 34.975 33.8078 34.975 34.0078 34.875C 34.5078 34.875 34.7078 35.075 34.9078 35.375C 35.1078 35.775 35.4078 36.275 35.6078 36.675C 35.7078 36.775 35.7078 36.875 35.7078 36.975C 35.9078 37.375 36.1078 37.875 35.7078 38.175C 35.3078 38.475 34.8078 38.375 34.4078 38.075C 34.1078 37.875 33.9078 37.875 33.6078 38.075C 33.5078 38.175 33.4078 38.275 33.3078 38.275C 33.0078 38.275 32.6078 38.375 32.4078 38.175C 32.3078 38.175 32.2078 37.775 32.3078 37.475ZM 38.4078 35.375C 38.5078 35.375 38.6078 35.375 38.6078 35.375C 39.5078 35.275 40.3078 34.975 40.8078 34.075C 41.3078 33.175 41.1078 32.175 40.5078 31.375C 40.3078 31.075 39.8078 30.775 39.4078 30.775C 38.5078 30.775 37.6078 30.775 36.8078 30.975C 35.3078 31.275 34.8078 32.375 35.4078 33.775C 36.0078 35.075 37.2078 35.275 38.4078 35.375ZM 28.0078 34.775C 29.0078 35.575 30.1078 35.475 31.2078 35.075C 32.3078 34.775 32.9078 33.875 33.0078 32.675C 33.0078 31.875 32.7078 31.275 31.9078 30.975C 31.2078 30.775 30.5078 30.675 29.7078 30.475C 29.2078 30.575 28.5078 30.675 28.1078 30.975C 26.8078 31.775 26.8078 33.975 28.0078 34.775ZM 61.4078 60.775L 6.80778 60.775C 1.60778 60.775 -1.69222 55.075 0.907776 50.575L 28.2078 3.375C 30.8078 -1.125 37.3078 -1.125 40.0078 3.375L 67.3078 50.675C 69.9078 55.175 66.6078 60.775 61.4078 60.775ZM 25.2078 33.575C 24.7078 34.275 24.6078 35.075 25.0078 35.975C 25.4078 36.775 26.1078 37.075 26.9078 37.075C 27.9078 37.075 28.4078 37.475 28.7078 38.475C 28.8078 38.775 28.9078 39.175 28.9078 39.475C 29.0078 40.175 29.4078 40.575 30.1078 40.875C 32.8078 41.775 35.5078 41.775 38.2078 40.875C 38.9078 40.675 39.3078 40.175 39.4078 39.475C 39.5078 38.975 39.6078 38.475 39.8078 38.075C 40.0078 37.575 40.4078 37.275 41.0078 37.175C 41.4078 37.175 41.8078 37.175 42.2078 37.075C 43.5078 36.675 44.0078 35.075 43.2078 33.775C 42.5078 32.775 42.5078 31.775 42.9078 30.675C 43.2078 29.975 43.5078 29.075 43.5078 28.275C 43.5078 24.975 41.9078 22.475 38.9078 20.975C 37.4078 20.275 35.9078 20.175 34.1078 20.175C 33.8078 20.175 33.4078 20.175 32.9078 20.175C 31.4078 20.275 29.9078 20.675 28.6078 21.475C 25.4078 23.375 23.9078 27.975 25.6078 30.975C 26.0078 31.775 25.8078 32.775 25.2078 33.575ZM 37.9078 46.675C 38.0078 46.675 38.0078 46.575 38.0078 46.575C 38.2078 46.475 38.5078 46.375 38.7078 46.375C 41.2078 45.575 43.5078 44.475 46.2078 44.675C 46.9078 44.675 47.5078 44.475 48.1078 44.075C 48.8078 43.475 48.9078 42.075 48.1078 41.675C 47.5078 41.375 47.2078 40.975 47.0078 40.275C 46.7078 39.375 45.9078 39.175 45.1078 39.675C 44.8078 39.875 44.6078 40.075 44.4078 40.375C 43.7078 41.275 42.9078 41.975 41.8078 42.375C 39.3078 43.375 36.8078 44.375 34.3078 45.275C 34.1078 45.375 33.8078 45.375 33.6078 45.275C 31.3078 44.375 28.9078 43.475 26.6078 42.575C 25.4078 42.075 24.4078 41.375 23.6078 40.275C 23.4078 39.975 23.1078 39.775 22.9078 39.675C 22.2078 39.275 21.5078 39.575 21.2078 40.275C 21.1078 40.375 21.1078 40.575 21.0078 40.675C 20.9078 41.075 20.6078 41.375 20.2078 41.575C 20.0078 41.675 19.9078 41.775 19.8078 41.875C 19.3078 42.675 19.5078 43.675 20.3078 44.175C 20.7078 44.375 21.1078 44.575 21.6078 44.675C 22.3078 44.775 23.0078 44.675 23.6078 44.775C 26.0078 44.975 28.1078 46.075 30.4078 46.875C 29.2078 47.275 28.0078 47.675 26.8078 48.075C 25.5078 48.475 24.2078 48.575 22.9078 48.375C 22.3078 48.275 21.6078 48.175 21.0078 48.275C 20.3078 48.375 20.0078 48.775 19.8078 49.375C 19.6078 49.975 19.7078 50.375 20.2078 50.775C 20.7078 51.175 20.9078 51.675 21.1078 52.275C 21.5078 53.575 22.9078 53.875 24.0078 53.075C 24.2078 52.875 24.4078 52.675 24.7078 52.475C 25.4078 51.975 26.0078 51.475 26.8078 51.075C 29.2078 50.075 31.7078 49.175 34.1078 48.175C 34.3078 48.075 34.6078 48.075 34.8078 48.175C 36.5078 48.775 38.3078 49.475 40.0078 50.175C 41.7078 50.875 43.4078 51.575 44.7078 52.875C 45.8078 53.975 47.2078 53.475 47.7078 52.075C 47.9078 51.575 48.1078 51.175 48.5078 50.775C 48.9078 50.275 49.1078 49.875 48.9078 49.275C 48.7078 48.675 48.3078 48.175 47.6078 48.075C 47.1078 48.075 46.6078 48.075 46.2078 48.175C 44.7078 48.475 43.3078 48.375 41.9078 47.975C 40.8078 47.575 39.7078 47.275 38.7078 46.875C 38.1078 46.775 38.0078 46.775 37.9078 46.675Z"/>
</defs>
</svg>
