<svg width="151" height="156" viewBox="0 0 151 156" version="1.1" xmlns="http://www.w3.org/2000/svg" xmlns:xlink="http://www.w3.org/1999/xlink">
<title>ico-premium</title>
<desc>Created using Figma</desc>
<g id="Canvas" transform="translate(-916 443)">
<g id="ico-premium">
<g id="Vector">
<use xlink:href="#path0_fill" transform="translate(916 -364.9)" fill="#FFFFFF"/>
</g>
<g id="Vector">
<use xlink:href="#path1_fill" transform="translate(957.851 -443)" fill="#FFFFFF"/>
</g>
</g>
</g>
<defs>
<path id="path0_fill" d="M 48.9511 1.4C 53.9511 16.9 59.151 33.3 64.751 50.9C 66.951 44.8 68.751 40 70.251 35.1C 70.651 33.9 70.151 32.2 69.651 31C 68.951 29.3 67.751 27.9 67.051 26.2C 65.151 22 63.251 17.7 67.451 13.8C 70.551 10.9 78.851 10.8 82.651 13.3C 86.051 15.6 85.951 18.8 85.251 22.2C 85.051 23 84.8511 23.9 84.3511 24.5C 76.8511 33.4 82.751 41.4 86.051 50.7C 91.551 33.4 96.751 16.9 102.151 -1.52588e-06C 103.751 0.899998 104.951 1.8 106.251 2.3C 115.951 6.6 125.451 11.4 135.451 14.9C 144.051 17.9 149.251 23.3 150.151 31.9C 150.951 39.8 150.551 47.8 150.051 55.8C 149.951 57.7 147.651 60.1 145.751 61.1C 128.951 70.1 110.751 74.7 91.8511 76.3C 62.9511 78.9 35.0511 75.3 8.45105 63.1C 2.75105 60.5 -0.448948 57.2 0.0510521 50.8C 0.551052 43.2 0.251052 35.5 1.55105 28.1C 2.55105 22.1 6.95105 18.1 12.8511 15.9C 24.8511 11.3 36.5511 6.4 48.9511 1.4Z"/>
<path id="path1_fill" d="M 72.4 27.7C 72.4 33 71.5 37.8 69.7 42.2C 67.9 46.6 65.4 50 62.2 52.5C 59 55 55.4 56.2 51.4 56.2C 48.5 56.2 46.2 55.5 44.6 54.1C 43 52.7 42.1 50.9 41.7 48.7L 41.4 48.7C 38.4 53.7 34.2 56.2 28.9 56.2C 25.2 56.2 22.4 55 20.4 52.7C 18.4 50.3 17.4 47.1 17.4 42.9C 17.4 38.4 18.4 34.2 20.4 30.3C 22.4 26.4 25.3 23.4 28.9 21.2C 32.5 19 36.5 17.8 40.8 17.8C 42.4 17.8 43.8 17.9 45.1 18C 46.4 18.2 47.6 18.3 48.7 18.6C 49.8 18.8 51.7 19.4 54.5 20.4L 50 38C 49.1 41.4 48.6 43.8 48.6 45.2C 48.6 48 49.8 49.3 52.2 49.3C 54.4 49.3 56.4 48.3 58.2 46.3C 60.1 44.3 61.5 41.7 62.6 38.4C 63.7 35.2 64.2 31.7 64.2 28C 64.2 21.2 62.3 15.9 58.4 12.3C 54.5 8.7 49.1 6.9 42 6.9C 35.6 6.9 29.8 8.4 24.7 11.4C 19.6 14.4 15.6 18.6 12.7 24.1C 9.8 29.6 8.4 35.7 8.4 42.4C 8.4 50.2 10.5 56.2 14.7 60.5C 18.9 64.8 24.8 66.9 32.3 66.9C 38.3 66.9 44.8 65.6 51.7 63L 51.7 70C 45.1 72.7 38.3 74.1 31.2 74.1C 24.9 74.1 19.4 72.8 14.7 70.3C 10 67.8 6.4 64.2 3.8 59.5C 1.2 54.8 -7.62939e-07 49.3 -7.62939e-07 43.1C -7.62939e-07 35 1.8 27.6 5.5 21.1C 9.2 14.5 14.3 9.4 21 5.6C 27.7 1.8 35.1 0 43.3 0C 49.3 0 54.5 1.1 58.9 3.4C 63.3 5.6 66.6 8.9 69 13.1C 71.3 17.2 72.4 22.1 72.4 27.7ZM 40.1 24.6C 37.5 24.6 35.1 25.4 33 27C 30.8 28.6 29.1 30.8 27.9 33.5C 26.7 36.2 26.1 39.1 26.1 42.2C 26.1 46.9 27.8 49.3 31.1 49.3C 33.6 49.3 35.7 48.2 37.5 46.1C 39.3 43.9 40.8 40.6 42 36.2L 44.9 25.4C 43.3 24.9 41.7 24.6 40.1 24.6Z"/>
</defs>
</svg>
