<svg width="47" height="46" viewBox="0 0 47 46" version="1.1" xmlns="http://www.w3.org/2000/svg" xmlns:xlink="http://www.w3.org/1999/xlink">
<title>ico-share</title>
<desc>Created using Figma</desc>
<g id="Canvas" transform="translate(-570 185)">
<g id="ico-share">
<use xlink:href="#path0_fill" transform="translate(570 -185)"/>
</g>
</g>
<defs>
<path id="path0_fill" d="M 32.6631 13.4018C 30.1631 14.6018 27.6631 15.8018 25.1631 17.0018C 22.1631 18.4018 19.2631 19.9018 16.2631 21.3018C 15.8631 21.5018 15.6631 21.7018 15.7631 22.1018C 15.8631 22.4018 15.8631 22.8018 15.7631 23.0018C 15.5631 23.7018 15.8631 24.0018 16.4631 24.2018C 21.6631 26.7018 26.8631 29.3018 32.0631 31.8018C 32.2631 31.9018 32.4631 32.0018 32.6631 32.1018C 33.8631 31.0018 35.1631 30.2018 36.7631 29.8018C 41.0631 28.8018 45.3631 31.6018 46.2631 36.1018C 47.1631 40.3018 44.2631 44.6018 40.0631 45.4018C 35.1631 46.3018 30.7631 42.8018 30.5631 37.8018C 30.5631 37.7018 30.5631 37.6018 30.5631 37.4018C 30.8631 36.5018 30.3631 36.1018 29.5631 35.8018C 24.4631 33.3018 19.3631 30.8018 14.2631 28.3018C 13.8631 28.1018 13.6631 28.1018 13.3631 28.4018C 10.7631 30.8018 7.0631 31.2018 4.0631 29.5018C 1.0631 27.8018 -0.536895 24.4018 0.163105 21.1018C 0.863105 17.6018 3.5631 15.0018 7.0631 14.6018C 9.4631 14.3018 11.6631 15.0018 13.4631 16.7018C 13.7631 17.0018 13.9631 17.0018 14.3631 16.8018C 19.6631 14.2018 24.9631 11.6018 30.2631 9.10179C 30.5631 8.90179 30.7631 8.80179 30.6631 8.40179C 30.0631 4.00179 33.8631 -0.0982077 38.5631 0.00179235C 42.9631 0.101792 46.5631 3.80179 46.4631 8.10179C 46.2631 12.6018 42.5631 16.1018 38.0631 15.9018C 36.1631 15.8018 34.5631 15.1018 33.0631 13.8018C 32.8631 13.7018 32.7631 13.6018 32.6631 13.4018Z"/>
</defs>
</svg>
