<svg width="71" height="45" viewBox="0 0 71 45" version="1.1" xmlns="http://www.w3.org/2000/svg" xmlns:xlink="http://www.w3.org/1999/xlink">
<title>ico-google</title>
<desc>Created using Figma</desc>
<g id="Canvas" transform="translate(13 -145)">
<g id="ico-google">
<g id="Vector">
<use xlink:href="#path0_fill" transform="translate(-13 145)"/>
</g>
<g id="Vector">
<use xlink:href="#path1_fill" transform="translate(38.6 157.725)"/>
</g>
</g>
</g>
<defs>
<path id="path0_fill" d="M 0 20.225C 0.2 19.325 0.4 18.525 0.5 17.625C 3.8 1.52498 24.1 -5.57502 36.7 5.02498C 37 5.32498 37.3 5.62498 37.7 5.92498C 35.7 7.82498 33.7 9.72498 31.8 11.525C 25 7.12498 18.7 7.12498 13.6 11.725C 8.9 15.925 7.5 22.625 10.2 28.225C 13 34.025 19.2 37.025 25.7 35.825C 30.8 34.825 34.9 30.925 35.3 26.625C 31.2 26.625 27 26.625 22.9 26.625C 22.9 24.125 22.9 21.725 22.9 19.225C 23.3 19.225 23.7 19.125 24.1 19.125C 30.3 19.125 36.6 19.125 42.8 19.125C 43.8 19.125 44.2 19.325 44.3 20.425C 44.7 25.025 44.1 29.425 41.9 33.625C 37.6 41.925 29 45.025 20.9 44.325C 9 43.225 1.2 34.225 0.2 24.725C 0.2 24.525 0.1 24.325 0 24.125C 0 22.825 0 21.525 0 20.225Z"/>
<path id="path1_fill" d="M 12.8 12.5C 12.8 14.7 12.8 16.7 12.8 18.8C 10.6 18.8 8.6 18.8 6.4 18.8C 6.4 16.8 6.4 14.8 6.4 12.6C 4.2 12.6 2.2 12.6 -1.52588e-06 12.6C -1.52588e-06 10.5 -1.52588e-06 8.5 -1.52588e-06 6.3C 2 6.3 4.1 6.3 6.3 6.3C 6.3 4.1 6.3 2.1 6.3 -1.90735e-07C 8.5 -1.90735e-07 10.5 -1.90735e-07 12.7 -1.90735e-07C 12.7 2 12.7 4 12.7 6.2C 14.9 6.2 17 6.2 19.1 6.2C 19.1 8.4 19.1 10.4 19.1 12.5C 17.2 12.5 15.1 12.5 12.8 12.5Z"/>
</defs>
</svg>
