<svg width="42" height="34" viewBox="0 0 42 34" version="1.1" xmlns="http://www.w3.org/2000/svg" xmlns:xlink="http://www.w3.org/1999/xlink">
<title>ico-back</title>
<desc>Created using Figma</desc>
<g id="Canvas" transform="translate(-815 112)">
<g id="ico-back">
<use xlink:href="#path0_fill" transform="translate(815 -112)" fill="#FFFFFF"/>
</g>
</g>
<defs>
<path id="path0_fill" d="M 41.4 33.8C 41.1 33.6 40.6 33.4 40.4 33.1C 35.4 26.8 28.7 23.8 20.8 23C 19.3 22.9 17.8 22.8 16.2 22.7C 16.2 25.8 16.2 28.8 16.2 32.2C 15.5 31.6 15.1 31.2 14.7 30.8C 10.2 26.3 5.7 21.8 1.2 17.3C 0.8 16.9 0.4 16.6 0 16.3C 0 16.2 0 16.1 0 16C 4.9 11.2 9.7 6.3 14.6 1.5C 15 1 15.5 0.6 16.1 0C 16.1 3.2 16.1 6.1 16.1 9C 17.6 9.4 19.1 9.7 20.5 10C 29.7 12.5 35.8 18.4 39.3 27.1C 40.1 29.3 40.7 31.6 41.4 33.8Z"/>
</defs>
</svg>
