<?xml version="1.0" encoding="utf-8"?>
<!-- Generator: Adobe Illustrator 21.1.0, SVG Export Plug-In . SVG Version: 6.00 Build 0)  -->
<svg version="1.1" id="Layer_1" xmlns="http://www.w3.org/2000/svg" xmlns:xlink="http://www.w3.org/1999/xlink" x="0px" y="0px"
	 viewBox="0 0 368.7 368" style="enable-background:new 0 0 368.7 368;" xml:space="preserve">
<style type="text/css">
	.st0{fill:#010101;}
	.st1{fill:none;}
	.st2{fill:#FFFFFF;}
	.st3{font-family:'SpaceMono-Regular';}
	.st4{font-size:16.7147px;}
</style>
<circle class="st0" cx="184.3" cy="183.7" r="179.5"/>
<path id="SVGID_x5F_1_x5F_" class="st1" d="M273.1,308c-68.7,49-164.1,33.1-213.1-35.5S26.9,108.4,95.5,59.3s164.1-33.1,213.1,35.5
	S341.8,259,273.1,308z"/>
<text><textPath  xlink:href="#SVGID_x5F_1_x5F_" startOffset="75.5063%">
<tspan  class="st2" style="font-family:'SpaceMono-Bold'; font-size:15.3273px;">CLIQUE PARA INICIAR</tspan></textPath>
</text>
<path id="SVGID_x5F_2_x5F_" class="st1" d="M268.1,324.9c78-46.3,103.7-147,57.4-225.1S178.5-3.9,100.5,42.4s-103.7,147-57.4,225.1
	S190.1,371.2,268.1,324.9z"/>
<text><textPath  xlink:href="#SVGID_x5F_2_x5F_" startOffset="104.419%">
<tspan  class="st2" style="font-family:'SpaceMono-Bold'; font-size:16.4751px;">CLIQUE PARA INICIAR</tspan></textPath>
</text>
<g>
	<g>
		<g>
			<polygon class="st2" points="193.2,196.7 135.1,85.8 227.3,196.7 220.6,196.7 131.8,81.6 199.1,196.7 			"/>
		</g>
		<g>
			<polygon class="st2" points="226.5,170.7 139.6,277.8 192.5,170.7 199.1,170.7 133.7,285.8 220.6,170.7 			"/>
		</g>
		<path class="st2" d="M157.6,192.7h-8.2v-17.2l-6-9.2v31.3h16.1C158.6,196.7,158,193.7,157.6,192.7z"/>
		<path class="st2" d="M177.3,175v12.4c0,3-0.6,5.4-2.2,7.1c-1.6,1.7-3.9,2.6-7,2.6c-3.1,0-5.7-0.9-7.3-2.6
			c-1.6-1.7-2.6-4.1-2.6-7.1v-17.2l5,10v7.2c0,1.6,0.6,2.8,1.3,3.6c0.7,0.9,2,1.3,3.5,1.3c1.6,0,2.5-0.4,3.3-1.3
			c0.7-0.9,0.9-2.1,0.9-3.6v-21.2L177.3,175z"/>
	</g>
	<text transform="matrix(1 0 0 1 230.0863 197.3376)" class="st2 st3 st4">.NET</text>
</g>
</svg>
