<svg width="87" height="115" viewBox="0 0 87 115" version="1.1" xmlns="http://www.w3.org/2000/svg" xmlns:xlink="http://www.w3.org/1999/xlink">
<title>lux-logo-white</title>
<desc>Created using Figma</desc>
<g id="Canvas" transform="translate(-568 -244)">
<g id="lux-logo-white">
<use xlink:href="#path0_fill" transform="translate(568 244)" fill="#FFFFFF"/>
</g>
</g>
<defs>
<path id="path0_fill" d="M 44.3 64.5L 11.8 2.4L 63.4 64.5L 59.7 64.5L 9.9 0L 47.6 64.5L 44.3 64.5ZM 59.7 50L 11 114.5L 47.6 50L 43.9 50L 14.3 110L 63 50L 59.7 50ZM 24.4 62.4L 19.7 62.4L 19.7 52.7L 16.4 47.6L 16.4 65.1L 25.4 65.1C 24.9 64.5 24.6 62.8 24.4 62.4ZM 32.7 47.5L 32.7 59.4C 32.7 60.3 32.6 61 32.2 61.4C 31.8 61.9 31.2 62.1 30.3 62.1C 29.4 62.1 28.7 61.9 28.3 61.4C 27.9 60.9 27.5 60.2 27.5 59.4L 27.5 55.3L 24.8 49.7L 24.8 59.3C 24.8 61 25.3 62.3 26.2 63.3C 27.1 64.3 28.5 64.7 30.2 64.7C 32 64.7 33.2 64.2 34.1 63.3C 35 62.3 35.3 61 35.3 59.3L 35.3 52.4L 32.7 47.5ZM 65.5 64.9L 67 64.9L 67 63.4L 65.5 63.4L 65.5 64.9ZM 68.4 64.9L 69.8 64.9L 69.8 60.7L 73 64.9L 74.2 64.9L 74.2 58.3L 72.8 58.3L 72.8 62.3L 69.7 58.3L 68.4 58.3L 68.4 64.9L 68.4 64.9ZM 75.8 64.9L 80.8 64.9L 80.8 63.6L 77.2 63.6L 77.2 62.2L 80.3 62.2L 80.3 61L 77.2 61L 77.2 59.7L 80.7 59.7L 80.7 58.4L 75.8 58.4L 75.8 64.9ZM 83.6 64.9L 85 64.9L 85 59.7L 87 59.7L 87 58.4L 81.6 58.4L 81.6 59.7L 83.6 59.7L 83.6 64.9ZM 3.2 65.1C 5.1 65.1 6.5 63.7 6.5 61.9C 6.5 60.2 5.1 58.8 3.3 58.8C 1.5 58.8 0 60.2 0 62C 0 63.7 1.4 65.1 3.2 65.1ZM 3.3 63.9C 2.2 63.9 1.4 63 1.4 62C 1.4 61 2.2 60.1 3.2 60.1C 4.2 60.1 5.1 61 5.1 62C 5.1 63 4.3 63.9 3.3 63.9ZM 7.7 65L 9 65L 9 63.2L 10 63.2C 11.4 63.2 12.5 62.5 12.5 61C 12.5 59.7 11.6 58.9 10.2 58.9L 7.7 58.9L 7.7 65ZM 9.1 62L 9.1 60.1L 10.1 60.1C 10.8 60.1 11.2 60.4 11.2 61C 11.2 61.5 10.8 61.9 10.1 61.9L 9.1 61.9L 9.1 62ZM 12.5 65L 13.9 65L 13.9 63.6L 12.5 63.6L 12.5 65Z"/>
</defs>
</svg>
