<svg width="261" height="344" viewBox="0 0 261 344" version="1.1" xmlns="http://www.w3.org/2000/svg" xmlns:xlink="http://www.w3.org/1999/xlink">
<title>luxx-logo</title>
<desc>Created using Figma</desc>
<g id="Canvas" transform="translate(-190 248)">
<g id="luxx-logo">
<use xlink:href="#path0_fill" transform="translate(190 -248)" fill="url(#paint0_linear)"/>
</g>
</g>
<defs>
<linearGradient id="paint0_linear" x1="0" y1="0" x2="1" y2="0" gradientUnits="userSpaceOnUse" gradientTransform="matrix(260.836 0 0 260.836 0 41.1085)">
<stop offset="0.2581" stop-color="#00AF93"/>
<stop offset="0.3971" stop-color="#00A18D"/>
<stop offset="0.6608" stop-color="#007C7C"/>
<stop offset="1" stop-color="#004363"/>
</linearGradient>
<path id="path0_fill" d="M 132.8 193.1L 35.3 7.1L 189.9 193.1L 178.7 193.1L 29.8 0L 142.7 193.1L 132.8 193.1ZM 188.7 149.9L 42.8 329.6L 131.6 149.9L 142.8 149.9L 32.8 343.1L 178.7 150L 188.7 150L 188.7 149.9ZM 76.1 195L 49.1 195L 49.1 142.5L 59 157.9L 59 187L 73 187C 73.6 188.2 74.6 193.1 76.1 195ZM 105.9 157L 105.9 177.8C 105.9 182.9 105 186.8 102.3 189.7C 99.6 192.6 95.9 194 90.6 194C 85.3 194 81.2 192.6 78.5 189.7C 75.8 186.8 74.3 182.9 74.3 177.8L 74.3 148.9L 82.3 165.7L 82.3 177.8C 82.3 180.4 83.4 182.5 84.6 183.9C 85.8 185.4 88 186.1 90.6 186.1C 93.2 186.1 94.9 185.4 96.2 183.9C 97.4 182.4 97.8 180.4 97.8 177.8L 97.8 142.2L 105.9 157ZM 196.4 190L 200.9 190L 200.9 194.5L 196.4 194.5L 196.4 190ZM 205 174.8L 209 174.8L 218.2 186.9L 218.2 174.8L 222.5 174.8L 222.5 194.4L 218.8 194.4L 209.3 181.9L 209.3 194.4L 205 194.4L 205 174.8ZM 227.2 174.8L 242 174.8L 242 178.6L 231.5 178.6L 231.5 182.6L 240.8 182.6L 240.8 186.4L 231.5 186.4L 231.5 190.5L 242.2 190.5L 242.2 194.3L 227.3 194.3L 227.3 174.8L 227.2 174.8ZM 250.5 178.8L 244.5 178.8L 244.5 174.8L 260.8 174.8L 260.8 178.8L 254.8 178.8L 254.8 194.4L 250.5 194.4L 250.5 178.8ZM 9.8 176.1C 4.1 176.1 0 180.4 0 185.6L 0 185.7C 0 190.9 4.1 195.1 9.7 195.1C 15.3 195.1 19.5 190.8 19.5 185.6L 19.5 185.5C 19.5 180.4 15.4 176.1 9.8 176.1ZM 15.3 185.7C 15.3 188.8 13 191.4 9.8 191.4C 6.6 191.4 4.2 188.8 4.2 185.6L 4.2 185.5C 4.2 182.4 6.5 179.8 9.7 179.8C 12.9 179.8 15.3 182.5 15.3 185.7ZM 30.6 176.5L 23.1 176.5L 23.1 194.8L 27.1 194.8L 27.1 189.3L 30.2 189.3C 34.3 189.3 37.6 187.1 37.6 182.9L 37.6 182.8C 37.6 179.1 35 176.5 30.6 176.5ZM 33.5 182.9C 33.5 184.5 32.3 185.7 30.3 185.7L 27.1 185.7L 27.1 180.1L 30.2 180.1C 32.3 180.1 33.5 181.1 33.5 182.9ZM 37.4 190.6L 41.6 190.6L 41.6 194.8L 37.4 194.8L 37.4 190.6Z"/>
</defs>
</svg>
